# xmcd
#
# Track frame offsets:
#	150
#	12873
#	25146
#	36594
#	49392
#	66015
#	81963
#	92511
#	110409
#	124107
#	142830
#
# Disc length: 2099 seconds
#
# Revision: 1
# Processed by: cddbd v1.5.2PL0 Copyright (c) Steve Scherf et al.
# Submitted via: audiograbber 1.83.01
#
DISCID=8d08310b
DTITLE=Kentucky Headhunters - Stompin' Grounds
DYEAR=1997
DGENRE=
TTITLE0=Neck of the Woods
TTITLE1=Singin' the Blues
TTITLE2=Party Zone
TTITLE3=Private Part
TTITLE4=Kentucky Wildcat
TTITLE5=Runnin' Water
TTITLE6=Farmer's Daughter
TTITLE7=See Rock City
TTITLE8=Southern Belle
TTITLE9=Country Best
TTITLE10=Mr. Know-It-All
EXTD=
EXTT0=
EXTT1=
EXTT2=
EXTT3=
EXTT4=
EXTT5=
EXTT6=
EXTT7=
EXTT8=
EXTT9=
EXTT10=
PLAYORDER=
